<svg xmlns="http://www.w3.org/2000/svg" viewBox="0 0 220 150" role="img" aria-label="Fixed type electric chain hoist preview">
  <defs>
    <linearGradient id="case" x1="0" x2="1" y1="0" y2="1">
      <stop offset="0" stop-color="#ffd84c"/>
      <stop offset=".56" stop-color="#f1b115"/>
      <stop offset="1" stop-color="#d98a00"/>
    </linearGradient>
    <filter id="soft-shadow" x="-20%" y="-20%" width="140%" height="160%">
      <feDropShadow dx="0" dy="10" stdDeviation="7" flood-color="#1a2435" flood-opacity=".22"/>
    </filter>
  </defs>
  <g filter="url(#soft-shadow)">
    <path d="M98 31c0-18 28-18 28 0v17H98z" fill="none" stroke="#151b25" stroke-width="8" stroke-linecap="round"/>
    <path d="M83 50h65l12 21-15 65H83L70 72z" fill="url(#case)"/>
    <path d="M92 60h33l-5 66H82z" fill="#ffd75c"/>
    <path d="M113 136v16" stroke="#19212b" stroke-width="6" stroke-linecap="round"/>
    <path d="M113 145c0 12-19 12-19 0" fill="none" stroke="#19212b" stroke-width="6" stroke-linecap="round"/>
    <path d="M154 61c22 9 34 25 34 47 0 13-5 25-15 35" fill="none" stroke="#202734" stroke-width="7" stroke-linecap="round"/>
    <path d="M170 69v52" stroke="#202734" stroke-width="5" stroke-linecap="round" stroke-dasharray="2 7"/>
    <circle cx="135" cy="81" r="8" fill="#fff2a5" opacity=".45"/>
  </g>
</svg>
