<svg xmlns="http://www.w3.org/2000/svg" viewBox="0 0 220 150" role="img" aria-label="CD electric wire rope hoist preview">
  <defs>
    <linearGradient id="paint" x1="0" x2="1" y1="0" y2="1">
      <stop offset="0" stop-color="#ffd84f"/>
      <stop offset=".55" stop-color="#f3b416"/>
      <stop offset="1" stop-color="#d98a00"/>
    </linearGradient>
    <filter id="soft-shadow" x="-20%" y="-20%" width="140%" height="160%">
      <feDropShadow dx="0" dy="10" stdDeviation="7" flood-color="#1a2435" flood-opacity=".22"/>
    </filter>
  </defs>
  <g filter="url(#soft-shadow)">
    <path d="M36 61h150" stroke="#222936" stroke-width="10" stroke-linecap="round"/>
    <rect x="58" y="45" width="108" height="53" rx="11" fill="url(#paint)"/>
    <path d="M70 54h76v34H70z" fill="#ffdf68"/>
    <rect x="44" y="85" width="42" height="22" rx="7" fill="#151b25"/>
    <rect x="141" y="85" width="37" height="22" rx="7" fill="#151b25"/>
    <circle cx="65" cy="108" r="11" fill="#151b25"/>
    <circle cx="159" cy="108" r="11" fill="#151b25"/>
    <circle cx="65" cy="108" r="5" fill="#798293"/>
    <circle cx="159" cy="108" r="5" fill="#798293"/>
    <path d="M113 98v25" stroke="#17202a" stroke-width="6" stroke-linecap="round"/>
    <path d="M113 123c0 11-18 11-18 0" fill="none" stroke="#17202a" stroke-width="6" stroke-linecap="round"/>
    <path d="M81 62h52M81 74h38" stroke="#ffe782" stroke-width="4" stroke-linecap="round"/>
  </g>
</svg>
