<svg xmlns="http://www.w3.org/2000/svg" viewBox="0 0 220 150" role="img" aria-label="ZE wire rope hoist preview">
  <defs>
    <linearGradient id="paint" x1="0" x2="1" y1="0" y2="1">
      <stop offset="0" stop-color="#ffd74a"/>
      <stop offset=".55" stop-color="#f5b318"/>
      <stop offset="1" stop-color="#d98a00"/>
    </linearGradient>
    <linearGradient id="dark" x1="0" x2="1">
      <stop offset="0" stop-color="#343b49"/>
      <stop offset="1" stop-color="#111821"/>
    </linearGradient>
    <filter id="soft-shadow" x="-20%" y="-20%" width="140%" height="160%">
      <feDropShadow dx="0" dy="10" stdDeviation="7" flood-color="#1a2435" flood-opacity=".22"/>
    </filter>
  </defs>
  <g filter="url(#soft-shadow)">
    <path d="M31 62h154" stroke="url(#dark)" stroke-width="10" stroke-linecap="round"/>
    <path d="M61 42h86l26 22-15 47H54L41 78z" fill="url(#paint)"/>
    <path d="M67 50h62l-8 54H55z" fill="#ffd95b"/>
    <path d="M132 52h28l16 15-11 34h-31z" fill="#eda60c"/>
    <rect x="42" y="81" width="36" height="22" rx="7" fill="#151b25"/>
    <rect x="137" y="82" width="38" height="22" rx="7" fill="#151b25"/>
    <circle cx="61" cy="104" r="12" fill="#151b25"/>
    <circle cx="156" cy="104" r="12" fill="#151b25"/>
    <circle cx="61" cy="104" r="5" fill="#778194"/>
    <circle cx="156" cy="104" r="5" fill="#778194"/>
    <path d="M173 78h18v31h-17z" fill="#141a24"/>
    <path d="M183 109v16c0 10-16 10-16 0" fill="none" stroke="#151b25" stroke-width="6" stroke-linecap="round"/>
    <path d="M80 58h34M76 67h55" stroke="#ffe47d" stroke-width="4" stroke-linecap="round" opacity=".9"/>
  </g>
</svg>
